<svg xmlns="http://www.w3.org/2000/svg" xmlns:xlink="http://www.w3.org/1999/xlink" xmlns:lucid="lucid" width="2312" height="1054"><g transform="translate(0 0)" lucid:page-tab-id="0_0"><path d="M0 0h2312.44v3140H0z" fill="#fff"/><path d="M341.58 11.6c36.05 0 65.3 31.65 65.3 70.7 0 39.04-29.25 70.7-65.3 70.7H145.7c-36.05 0-65.28-31.66-65.28-70.7 0-39.05 29.23-70.7 65.3-70.7z" stroke="#fff" fill="#282c33"/><use xlink:href="#a" transform="matrix(1,0,0,1,85.41538000785386,16.598423965481807) translate(80.54814814814819 72.93333333333334)"/><path d="M38.56 251a8 8 0 0 1 8-8h120.4a8 8 0 0 1 8 8v61.6a8 8 0 0 1-8 8H46.56a8 8 0 0 1-8-8z" stroke="#fff" fill="#1071e5"/><use xlink:href="#b" transform="matrix(1,0,0,1,50.56393442627683,254.98923251467068) translate(20.022222222222226 32.6)"/><path d="M351.04 251a8 8 0 0 1 8-8h120.4a8 8 0 0 1 8 8v61.6a8 8 0 0 1-8 8h-120.4a8 8 0 0 1-8-8z" stroke="#fff" fill="#008a0e"/><use xlink:href="#c" transform="matrix(1,0,0,1,363.0356248110237,254.98923251467068) translate(37.87222222222222 32.6)"/><path d="M351.04 455.77a8 8 0 0 1 8-8h120.4a8 8 0 0 1 8 8v61.6a8 8 0 0 1-8 8h-120.4a8 8 0 0 1-8-8z" stroke="#fff" fill="#fcce14"/><use xlink:href="#d" transform="matrix(1,0,0,1,363.0356248110237,459.7656728941393) translate(16.055555555555557 32.6)"/><path d="M351.04 660.54a8 8 0 0 1 8-8h120.4a8 8 0 0 1 8 8v61.6a8 8 0 0 1-8 8h-120.4a8 8 0 0 1-8-8z" stroke="#fff" fill="#54c45e"/><use xlink:href="#e" transform="matrix(1,0,0,1,363.0356248110237,664.5421132736078) translate(34.022222222222226 32.6)"/><path d="M769.92 452.28a8 8 0 0 1 8-8h169.85a8 8 0 0 1 8 8v61.6a8 8 0 0 1-8 8H777.92a8 8 0 0 1-8-8z" stroke="#fff" fill="#008a0e"/><use xlink:href="#f" transform="matrix(1,0,0,1,781.9232191757519,456.2764806154414) translate(4.816666666666663 32.6)"/><path d="M1612.2 452.28a8 8 0 0 1 8-8h120.4a8 8 0 0 1 8 8v61.6a8 8 0 0 1-8 8h-120.4a8 8 0 0 1-8-8z" stroke="#fff" fill="#008573"/><use xlink:href="#g" transform="matrix(1,0,0,1,1624.2116590471412,456.2764806154414) translate(4.388888888888893 32.6)"/><path d="M1871.27 452.28a8 8 0 0 1 8-8h120.4a8 8 0 0 1 8 8v61.6a8 8 0 0 1-8 8h-120.4a8 8 0 0 1-8-8z" stroke="#fff" fill="#ba23f6"/><use xlink:href="#h" transform="matrix(1,0,0,1,1883.2698415827704,456.2764806154414) translate(19.16666666666667 32.6)"/><path d="M2130.33 451.7a8 8 0 0 1 8-8h120.4a8 8 0 0 1 8 8v61.6a8 8 0 0 1-8 8h-120.4a8 8 0 0 1-8-8z" stroke="#fff" fill="#e81313"/><use xlink:href="#i" transform="matrix(1,0,0,1,2142.3280241183993,455.7014502959589) translate(18.388888888888886 32.6)"/><path d="M567.18 660.54a8 8 0 0 1 8-8h169.85a8 8 0 0 1 8 8v61.6a8 8 0 0 1-8 8H575.18a8 8 0 0 1-8-8z" stroke="#fff" fill="#008a0e"/><use xlink:href="#j" transform="matrix(1,0,0,1,579.1806005765725,664.5421132736079) translate(42.92777777777778 32.6)"/><path d="M826.98 660.54a8 8 0 0 1 8-8h169.85a8 8 0 0 1 8 8v61.6a8 8 0 0 1-8 8H834.98a8 8 0 0 1-8-8z" stroke="#fff" fill="#008a0e"/><use xlink:href="#k" transform="matrix(1,0,0,1,838.9842469300035,664.5421132736079) translate(18.11666666666666 32.6)"/><path d="M1086.8 660.54a8 8 0 0 1 8-8h169.84a8 8 0 0 1 8 8v61.6a8 8 0 0 1-8 8H1094.8a8 8 0 0 1-8-8z" stroke="#fff" fill="#008a0e"/><use xlink:href="#l" transform="matrix(1,0,0,1,1098.7878932834344,664.5421132736079) translate(23.56111111111111 32.6)"/><path d="M1346.6 660.54a8 8 0 0 1 8-8h169.84a8 8 0 0 1 8 8v61.6a8 8 0 0 1-8 8H1354.6a8 8 0 0 1-8-8z" stroke="#fff" fill="#008a0e"/><use xlink:href="#m" transform="matrix(1,0,0,1,1358.5915396368655,664.5421132736079) translate(27.41111111111111 32.6)"/><path d="M888.38 902.76a8 8 0 0 1 8-8h971.93a8 8 0 0 1 8 8v82.63a8 8 0 0 1-8 8H896.4a8 8 0 0 1-8-8z" stroke="#fff" fill="#cc4e00"/><use xlink:href="#n" transform="matrix(1,0,0,1,900.3815928532409,906.7586799464186) translate(345.43703703703716 45.322222222222216)"/><use xlink:href="#o" transform="matrix(1,0,0,1,900.3815928532409,906.7586799464186) translate(488.5185185185186 45.322222222222216)"/><path d="M243.64 154v23.54a12 12 0 0 1-12 12H118.76a12 12 0 0 0-12 12v24.6" stroke="#4c535d" fill="none"/><path d="M244.14 154h-1v-.5h1z" stroke="#4c535d" stroke-width=".05" fill="#4c535d"/><path d="M106.76 240.92l-4.63-14.27h9.27z" stroke="#4c535d" fill="#4c535d"/><path d="M243.64 154v25.77a12 12 0 0 0 12 12h151.6a12 12 0 0 1 12 12v22.38" stroke="#333" fill="none"/><path d="M244.14 154h-1v-.5h1z" stroke="#333" stroke-width=".05" fill="#333"/><path d="M419.24 240.92l-4.64-14.27h9.27z" stroke="#333" fill="#333"/><path d="M419.24 321.55v109.38" stroke="#282c33" fill="none"/><path d="M419.74 321.56h-1v-.5h1z" stroke="#282c33" stroke-width=".05" fill="#282c33"/><path d="M419.24 445.7l-4.64-14.27h9.27z" stroke="#282c33" fill="#282c33"/><path d="M419.24 526.32v109.4" stroke="#282c33" fill="none"/><path d="M419.74 526.34h-1v-.52h1z" stroke="#282c33" stroke-width=".05" fill="#282c33"/><path d="M419.24 650.47l-4.64-14.26h9.27z" stroke="#282c33" fill="#282c33"/><path d="M419.24 321.55v48.9a12 12 0 0 0 12 12h419.6a12 12 0 0 1 12 12v33" stroke="#282c33" fill="none"/><path d="M419.74 321.56h-1v-.5h1z" stroke="#282c33" stroke-width=".05" fill="#282c33"/><path d="M862.85 442.2l-4.64-14.26h9.28z" stroke="#282c33" fill="#282c33"/><path d="M862.85 522.83v52.38a12 12 0 0 1-12 12H672.1a12 12 0 0 0-12 12v36.5" stroke="#282c33" fill="none"/><path d="M863.35 522.85h-1v-.52h1z" stroke="#282c33" stroke-width=".05" fill="#282c33"/><path d="M660.1 650.47l-4.63-14.26h9.27z" stroke="#282c33" fill="#282c33"/><path d="M862.85 522.83v52.38a12 12 0 0 0 12 12h33.06a12 12 0 0 1 12 12v36.5" stroke="#282c33" fill="none"/><path d="M863.35 522.85h-1v-.52h1z" stroke="#282c33" stroke-width=".05" fill="#282c33"/><path d="M919.9 650.47l-4.63-14.26h9.27z" stroke="#282c33" fill="#282c33"/><path d="M862.85 522.83v52.38a12 12 0 0 0 12 12h292.86a12 12 0 0 1 12 12v36.5" stroke="#282c33" fill="none"/><path d="M863.35 522.85h-1v-.52h1z" stroke="#282c33" stroke-width=".05" fill="#282c33"/><path d="M1179.7 650.47l-4.62-14.26h9.27z" stroke="#282c33" fill="#282c33"/><path d="M862.85 522.83v52.38a12 12 0 0 0 12 12h552.67a12 12 0 0 1 12 12v36.5" stroke="#282c33" fill="none"/><path d="M863.35 522.85h-1v-.52h1z" stroke="#282c33" stroke-width=".05" fill="#282c33"/><path d="M1439.52 650.47l-4.64-14.26h9.27z" stroke="#282c33" fill="#282c33"/><path d="M419.24 321.55v48.9a12 12 0 0 0 12 12H1668.4a12 12 0 0 1 12 12v33" stroke="#282c33" fill="none"/><path d="M419.74 321.56h-1v-.5h1z" stroke="#282c33" stroke-width=".05" fill="#282c33"/><path d="M1680.4 442.2l-4.62-14.26h9.27z" stroke="#282c33" fill="#282c33"/><path d="M419.24 321.55v48.9a12 12 0 0 0 12 12h1496.23a12 12 0 0 1 12 12v33" stroke="#282c33" fill="none"/><path d="M419.74 321.56h-1v-.5h1z" stroke="#282c33" stroke-width=".05" fill="#282c33"/><path d="M1939.47 442.2l-4.64-14.26h9.28z" stroke="#282c33" fill="#282c33"/><path d="M419.24 321.55v48.6a12 12 0 0 0 12 12h1755.3a12 12 0 0 1 12 12v32.72" stroke="#282c33" fill="none"/><path d="M419.74 321.56h-1v-.5h1z" stroke="#282c33" stroke-width=".05" fill="#282c33"/><path d="M2198.53 441.63l-4.64-14.26h9.26z" stroke="#282c33" fill="#282c33"/><path d="M660.1 731.1v69.35a12 12 0 0 0 12 12h698.24a12 12 0 0 1 12 12v53.47" stroke="#282c33" fill="none"/><path d="M660.6 731.1h-1v-.5h1z" stroke="#282c33" stroke-width=".05" fill="#282c33"/><path d="M1382.34 892.7l-4.63-14.28h9.28z" stroke="#282c33" fill="#282c33"/><path d="M919.9 731.1v69.35a12 12 0 0 0 12 12h438.44a12 12 0 0 1 12 12v53.47" stroke="#282c33" fill="none"/><path d="M920.4 731.1h-1v-.5h1z" stroke="#282c33" stroke-width=".05" fill="#282c33"/><path d="M1382.34 892.7l-4.63-14.28h9.28z" stroke="#282c33" fill="#282c33"/><path d="M1179.7 731.1v69.35a12 12 0 0 0 12 12h178.64a12 12 0 0 1 12 12v53.47" stroke="#282c33" fill="none"/><path d="M1180.2 731.1h-1v-.5h1z" stroke="#282c33" stroke-width=".05" fill="#282c33"/><path d="M1382.34 892.7l-4.63-14.28h9.28z" stroke="#282c33" fill="#282c33"/><path d="M1439.52 731.1v69.35a12 12 0 0 1-12 12h-33.18a12 12 0 0 0-12 12v53.47" stroke="#282c33" fill="none"/><path d="M1440.02 731.1h-1v-.5h1z" stroke="#282c33" stroke-width=".05" fill="#282c33"/><path d="M1382.34 892.7l-4.63-14.28h9.28z" stroke="#282c33" fill="#282c33"/><path d="M2198.53 522.26V801.2a12 12 0 0 1-12 12h-792.2a12 12 0 0 0-12 12v52.72" stroke="#282c33" fill="none"/><path d="M2199.03 522.27h-1v-.5h1z" stroke="#282c33" stroke-width=".05" fill="#282c33"/><path d="M1382.34 892.7l-4.63-14.28h9.28z" stroke="#282c33" fill="#282c33"/><defs><path fill="#fff" d="M160-131c35 5 61 23 61 61C221 17 115-2 30 0v-248c76 3 177-17 177 60 0 33-19 50-47 57zm-97-11c50-1 110 9 110-42 0-47-63-36-110-37v79zm0 115c55-2 124 14 124-45 0-56-70-42-124-44v89" id="p"/><path fill="#fff" d="M100-194c62-1 85 37 85 99 1 63-27 99-86 99S16-35 15-95c0-66 28-99 85-99zM99-20c44 1 53-31 53-75 0-43-8-75-51-75s-53 32-53 75 10 74 51 75" id="q"/><path fill="#fff" d="M143 0L79-87 56-68V0H24v-261h32v163l83-92h37l-77 82L181 0h-38" id="r"/><path fill="#fff" d="M135-143c-3-34-86-38-87 0 15 53 115 12 119 90S17 21 10-45l28-5c4 36 97 45 98 0-10-56-113-15-118-90-4-57 82-63 122-42 12 7 21 19 24 35" id="s"/><path fill="#fff" d="M59-47c-2 24 18 29 38 22v24C64 9 27 4 27-40v-127H5v-23h24l9-43h21v43h35v23H59v120" id="t"/><path fill="#fff" d="M114-163C36-179 61-72 57 0H25l-1-190h30c1 12-1 29 2 39 6-27 23-49 58-41v29" id="u"/><path fill="#fff" d="M100-194c63 0 86 42 84 106H49c0 40 14 67 53 68 26 1 43-12 49-29l28 8c-11 28-37 45-77 45C44 4 14-33 15-96c1-61 26-98 85-98zm52 81c6-60-76-77-97-28-3 7-6 17-6 28h103" id="v"/><g id="a"><use transform="matrix(0.09629629629629627,0,0,0.09629629629629627,0,0)" xlink:href="#p"/><use transform="matrix(0.09629629629629627,0,0,0.09629629629629627,23.111111111111104,0)" xlink:href="#q"/><use transform="matrix(0.09629629629629627,0,0,0.09629629629629627,42.37037037037035,0)" xlink:href="#q"/><use transform="matrix(0.09629629629629627,0,0,0.09629629629629627,61.6296296296296,0)" xlink:href="#r"/><use transform="matrix(0.09629629629629627,0,0,0.09629629629629627,78.96296296296293,0)" xlink:href="#s"/><use transform="matrix(0.09629629629629627,0,0,0.09629629629629627,96.29629629629626,0)" xlink:href="#t"/><use transform="matrix(0.09629629629629627,0,0,0.09629629629629627,105.9259259259259,0)" xlink:href="#q"/><use transform="matrix(0.09629629629629627,0,0,0.09629629629629627,125.18518518518515,0)" xlink:href="#u"/><use transform="matrix(0.09629629629629627,0,0,0.09629629629629627,136.6444444444444,0)" xlink:href="#v"/></g><path fill="#fff" d="M115-194c55 1 70 41 70 98S169 2 115 4C84 4 66-9 55-30l1 105H24l-1-265h31l2 30c10-21 28-34 59-34zm-8 174c40 0 45-34 45-75s-6-73-45-74c-42 0-51 32-51 76 0 43 10 73 51 73" id="w"/><path fill="#fff" d="M84 4C-5 8 30-112 23-190h32v120c0 31 7 50 39 49 72-2 45-101 50-169h31l1 190h-30c-1-10 1-25-2-33-11 22-28 36-60 37" id="x"/><path fill="#fff" d="M115-194c53 0 69 39 70 98 0 66-23 100-70 100C84 3 66-7 56-30L54 0H23l1-261h32v101c10-23 28-34 59-34zm-8 174c40 0 45-34 45-75 0-40-5-75-45-74-42 0-51 32-51 76 0 43 10 73 51 73" id="y"/><path fill="#fff" d="M24 0v-261h32V0H24" id="z"/><path fill="#fff" d="M24-231v-30h32v30H24zM24 0v-190h32V0H24" id="A"/><path fill="#fff" d="M96-169c-40 0-48 33-48 73s9 75 48 75c24 0 41-14 43-38l32 2c-6 37-31 61-74 61-59 0-76-41-82-99-10-93 101-131 147-64 4 7 5 14 7 22l-32 3c-4-21-16-35-41-35" id="B"/><g id="b"><use transform="matrix(0.07777777777777778,0,0,0.07777777777777778,0,0)" xlink:href="#w"/><use transform="matrix(0.07777777777777778,0,0,0.07777777777777778,15.555555555555555,0)" xlink:href="#x"/><use transform="matrix(0.07777777777777778,0,0,0.07777777777777778,31.11111111111111,0)" xlink:href="#y"/><use transform="matrix(0.07777777777777778,0,0,0.07777777777777778,46.666666666666664,0)" xlink:href="#z"/><use transform="matrix(0.07777777777777778,0,0,0.07777777777777778,52.81111111111111,0)" xlink:href="#A"/><use transform="matrix(0.07777777777777778,0,0,0.07777777777777778,58.955555555555556,0)" xlink:href="#B"/></g><g id="c"><use transform="matrix(0.07777777777777778,0,0,0.07777777777777778,0,0)" xlink:href="#s"/><use transform="matrix(0.07777777777777778,0,0,0.07777777777777778,14,0)" xlink:href="#u"/><use transform="matrix(0.07777777777777778,0,0,0.07777777777777778,23.255555555555556,0)" xlink:href="#B"/></g><path d="M141-36C126-15 110 5 73 4 37 3 15-17 15-53c-1-64 63-63 125-63 3-35-9-54-41-54-24 1-41 7-42 31l-33-3c5-37 33-52 76-52 45 0 72 20 72 64v82c-1 20 7 32 28 27v20c-31 9-61-2-59-35zM48-53c0 20 12 33 32 33 41-3 63-29 60-74-43 2-92-5-92 41" id="C"/><path d="M135-143c-3-34-86-38-87 0 15 53 115 12 119 90S17 21 10-45l28-5c4 36 97 45 98 0-10-56-113-15-118-90-4-57 82-63 122-42 12 7 21 19 24 35" id="D"/><path d="M100-194c63 0 86 42 84 106H49c0 40 14 67 53 68 26 1 43-12 49-29l28 8c-11 28-37 45-77 45C44 4 14-33 15-96c1-61 26-98 85-98zm52 81c6-60-76-77-97-28-3 7-6 17-6 28h103" id="E"/><path d="M59-47c-2 24 18 29 38 22v24C64 9 27 4 27-40v-127H5v-23h24l9-43h21v43h35v23H59v120" id="F"/><g id="d"><use transform="matrix(0.07777777777777778,0,0,0.07777777777777778,0,0)" xlink:href="#C"/><use transform="matrix(0.07777777777777778,0,0,0.07777777777777778,15.555555555555555,0)" xlink:href="#D"/><use transform="matrix(0.07777777777777778,0,0,0.07777777777777778,29.555555555555557,0)" xlink:href="#D"/><use transform="matrix(0.07777777777777778,0,0,0.07777777777777778,43.55555555555556,0)" xlink:href="#E"/><use transform="matrix(0.07777777777777778,0,0,0.07777777777777778,59.111111111111114,0)" xlink:href="#F"/><use transform="matrix(0.07777777777777778,0,0,0.07777777777777778,66.88888888888889,0)" xlink:href="#D"/></g><path d="M24-231v-30h32v30H24zM24 0v-190h32V0H24" id="G"/><path d="M210-169c-67 3-38 105-44 169h-31v-121c0-29-5-50-35-48C34-165 62-65 56 0H25l-1-190h30c1 10-1 24 2 32 10-44 99-50 107 0 11-21 27-35 58-36 85-2 47 119 55 194h-31v-121c0-29-5-49-35-48" id="H"/><path d="M177-190C167-65 218 103 67 71c-23-6-38-20-44-43l32-5c15 47 100 32 89-28v-30C133-14 115 1 83 1 29 1 15-40 15-95c0-56 16-97 71-98 29-1 48 16 59 35 1-10 0-23 2-32h30zM94-22c36 0 50-32 50-73 0-42-14-75-50-75-39 0-46 34-46 75s6 73 46 73" id="I"/><g id="e"><use transform="matrix(0.07777777777777778,0,0,0.07777777777777778,0,0)" xlink:href="#G"/><use transform="matrix(0.07777777777777778,0,0,0.07777777777777778,6.144444444444445,0)" xlink:href="#H"/><use transform="matrix(0.07777777777777778,0,0,0.07777777777777778,29.400000000000002,0)" xlink:href="#I"/></g><path fill="#fff" d="M210-169c-67 3-38 105-44 169h-31v-121c0-29-5-50-35-48C34-165 62-65 56 0H25l-1-190h30c1 10-1 24 2 32 10-44 99-50 107 0 11-21 27-35 58-36 85-2 47 119 55 194h-31v-121c0-29-5-49-35-48" id="J"/><path fill="#fff" d="M117-194c89-4 53 116 60 194h-32v-121c0-31-8-49-39-48C34-167 62-67 57 0H25l-1-190h30c1 10-1 24 2 32 11-22 29-35 61-36" id="K"/><g id="f"><use transform="matrix(0.07777777777777778,0,0,0.07777777777777778,0,0)" xlink:href="#B"/><use transform="matrix(0.07777777777777778,0,0,0.07777777777777778,14,0)" xlink:href="#q"/><use transform="matrix(0.07777777777777778,0,0,0.07777777777777778,29.555555555555557,0)" xlink:href="#J"/><use transform="matrix(0.07777777777777778,0,0,0.07777777777777778,52.811111111111124,0)" xlink:href="#w"/><use transform="matrix(0.07777777777777778,0,0,0.07777777777777778,68.36666666666667,0)" xlink:href="#q"/><use transform="matrix(0.07777777777777778,0,0,0.07777777777777778,83.92222222222222,0)" xlink:href="#K"/><use transform="matrix(0.07777777777777778,0,0,0.07777777777777778,99.4777777777778,0)" xlink:href="#v"/><use transform="matrix(0.07777777777777778,0,0,0.07777777777777778,115.03333333333336,0)" xlink:href="#K"/><use transform="matrix(0.07777777777777778,0,0,0.07777777777777778,130.5888888888889,0)" xlink:href="#t"/><use transform="matrix(0.07777777777777778,0,0,0.07777777777777778,138.36666666666667,0)" xlink:href="#s"/></g><path fill="#fff" d="M141 0L90-78 38 0H4l68-98-65-92h35l48 74 47-74h35l-64 92 68 98h-35" id="L"/><g id="g"><use transform="matrix(0.07777777777777778,0,0,0.07777777777777778,0,0)" xlink:href="#B"/><use transform="matrix(0.07777777777777778,0,0,0.07777777777777778,14,0)" xlink:href="#q"/><use transform="matrix(0.07777777777777778,0,0,0.07777777777777778,29.555555555555557,0)" xlink:href="#K"/><use transform="matrix(0.07777777777777778,0,0,0.07777777777777778,45.111111111111114,0)" xlink:href="#t"/><use transform="matrix(0.07777777777777778,0,0,0.07777777777777778,52.88888888888889,0)" xlink:href="#v"/><use transform="matrix(0.07777777777777778,0,0,0.07777777777777778,68.44444444444444,0)" xlink:href="#L"/><use transform="matrix(0.07777777777777778,0,0,0.07777777777777778,82.44444444444444,0)" xlink:href="#t"/><use transform="matrix(0.07777777777777778,0,0,0.07777777777777778,90.2222222222222,0)" xlink:href="#s"/></g><path fill="#fff" d="M106-169C34-169 62-67 57 0H25v-261h32l-1 103c12-21 28-36 61-36 89 0 53 116 60 194h-32v-121c2-32-8-49-39-48" id="M"/><g id="h"><use transform="matrix(0.07777777777777778,0,0,0.07777777777777778,0,0)" xlink:href="#M"/><use transform="matrix(0.07777777777777778,0,0,0.07777777777777778,15.555555555555555,0)" xlink:href="#q"/><use transform="matrix(0.07777777777777778,0,0,0.07777777777777778,31.11111111111111,0)" xlink:href="#q"/><use transform="matrix(0.07777777777777778,0,0,0.07777777777777778,46.666666666666664,0)" xlink:href="#r"/><use transform="matrix(0.07777777777777778,0,0,0.07777777777777778,60.666666666666664,0)" xlink:href="#s"/></g><path fill="#fff" d="M141-36C126-15 110 5 73 4 37 3 15-17 15-53c-1-64 63-63 125-63 3-35-9-54-41-54-24 1-41 7-42 31l-33-3c5-37 33-52 76-52 45 0 72 20 72 64v82c-1 20 7 32 28 27v20c-31 9-61-2-59-35zM48-53c0 20 12 33 32 33 41-3 63-29 60-74-43 2-92-5-92 41" id="N"/><path fill="#fff" d="M177-190C167-65 218 103 67 71c-23-6-38-20-44-43l32-5c15 47 100 32 89-28v-30C133-14 115 1 83 1 29 1 15-40 15-95c0-56 16-97 71-98 29-1 48 16 59 35 1-10 0-23 2-32h30zM94-22c36 0 50-32 50-73 0-42-14-75-50-75-39 0-46 34-46 75s6 73 46 73" id="O"/><g id="i"><use transform="matrix(0.07777777777777778,0,0,0.07777777777777778,0,0)" xlink:href="#w"/><use transform="matrix(0.07777777777777778,0,0,0.07777777777777778,15.555555555555555,0)" xlink:href="#N"/><use transform="matrix(0.07777777777777778,0,0,0.07777777777777778,31.11111111111111,0)" xlink:href="#O"/><use transform="matrix(0.07777777777777778,0,0,0.07777777777777778,46.666666666666664,0)" xlink:href="#v"/><use transform="matrix(0.07777777777777778,0,0,0.07777777777777778,62.22222222222222,0)" xlink:href="#s"/></g><g id="j"><use transform="matrix(0.07777777777777778,0,0,0.07777777777777778,0,0)" xlink:href="#N"/><use transform="matrix(0.07777777777777778,0,0,0.07777777777777778,15.555555555555555,0)" xlink:href="#t"/><use transform="matrix(0.07777777777777778,0,0,0.07777777777777778,23.333333333333332,0)" xlink:href="#q"/><use transform="matrix(0.07777777777777778,0,0,0.07777777777777778,38.888888888888886,0)" xlink:href="#J"/><use transform="matrix(0.07777777777777778,0,0,0.07777777777777778,62.144444444444446,0)" xlink:href="#s"/></g><g id="k"><use transform="matrix(0.07777777777777778,0,0,0.07777777777777778,0,0)" xlink:href="#J"/><use transform="matrix(0.07777777777777778,0,0,0.07777777777777778,23.255555555555556,0)" xlink:href="#q"/><use transform="matrix(0.07777777777777778,0,0,0.07777777777777778,38.81111111111111,0)" xlink:href="#z"/><use transform="matrix(0.07777777777777778,0,0,0.07777777777777778,44.955555555555556,0)" xlink:href="#v"/><use transform="matrix(0.07777777777777778,0,0,0.07777777777777778,60.51111111111111,0)" xlink:href="#B"/><use transform="matrix(0.07777777777777778,0,0,0.07777777777777778,74.51111111111112,0)" xlink:href="#x"/><use transform="matrix(0.07777777777777778,0,0,0.07777777777777778,90.06666666666669,0)" xlink:href="#z"/><use transform="matrix(0.07777777777777778,0,0,0.07777777777777778,96.21111111111114,0)" xlink:href="#v"/><use transform="matrix(0.07777777777777778,0,0,0.07777777777777778,111.76666666666668,0)" xlink:href="#s"/></g><g id="l"><use transform="matrix(0.07777777777777778,0,0,0.07777777777777778,0,0)" xlink:href="#q"/><use transform="matrix(0.07777777777777778,0,0,0.07777777777777778,15.555555555555555,0)" xlink:href="#u"/><use transform="matrix(0.07777777777777778,0,0,0.07777777777777778,24.81111111111111,0)" xlink:href="#O"/><use transform="matrix(0.07777777777777778,0,0,0.07777777777777778,40.36666666666667,0)" xlink:href="#N"/><use transform="matrix(0.07777777777777778,0,0,0.07777777777777778,55.922222222222224,0)" xlink:href="#K"/><use transform="matrix(0.07777777777777778,0,0,0.07777777777777778,71.47777777777777,0)" xlink:href="#A"/><use transform="matrix(0.07777777777777778,0,0,0.07777777777777778,77.62222222222222,0)" xlink:href="#s"/><use transform="matrix(0.07777777777777778,0,0,0.07777777777777778,91.62222222222222,0)" xlink:href="#J"/></g><g id="m"><use transform="matrix(0.07777777777777778,0,0,0.07777777777777778,0,0)" xlink:href="#t"/><use transform="matrix(0.07777777777777778,0,0,0.07777777777777778,7.777777777777778,0)" xlink:href="#v"/><use transform="matrix(0.07777777777777778,0,0,0.07777777777777778,23.333333333333332,0)" xlink:href="#J"/><use transform="matrix(0.07777777777777778,0,0,0.07777777777777778,46.58888888888889,0)" xlink:href="#w"/><use transform="matrix(0.07777777777777778,0,0,0.07777777777777778,62.144444444444446,0)" xlink:href="#z"/><use transform="matrix(0.07777777777777778,0,0,0.07777777777777778,68.28888888888889,0)" xlink:href="#N"/><use transform="matrix(0.07777777777777778,0,0,0.07777777777777778,83.84444444444445,0)" xlink:href="#t"/><use transform="matrix(0.07777777777777778,0,0,0.07777777777777778,91.62222222222222,0)" xlink:href="#v"/></g><path fill="#fff" d="M199 0l-22-63H83L61 0H9l90-248h61L250 0h-51zm-33-102l-36-108c-10 38-24 72-36 108h72" id="P"/><path fill="#fff" d="M115-3C79 11 28 4 28-45v-112H4v-33h27l15-45h31v45h36v33H77v99c-1 23 16 31 38 25v30" id="Q"/><path fill="#fff" d="M110-194c64 0 96 36 96 99 0 64-35 99-97 99-61 0-95-36-95-99 0-62 34-99 96-99zm-1 164c35 0 45-28 45-65 0-40-10-65-43-65-34 0-45 26-45 65 0 36 10 65 43 65" id="R"/><path fill="#fff" d="M220-157c-53 9-28 100-34 157h-49v-107c1-27-5-49-29-50C55-147 81-57 75 0H25l-1-190h47c2 12-1 28 3 38 10-53 101-56 108 0 13-22 24-43 59-42 82 1 51 116 57 194h-49v-107c-1-25-5-48-29-50" id="S"/><path fill="#fff" d="M25-224v-37h50v37H25zM25 0v-190h50V0H25" id="T"/><path fill="#fff" d="M190-63c-7 42-38 67-86 67-59 0-84-38-90-98-12-110 154-137 174-36l-49 2c-2-19-15-32-35-32-30 0-35 28-38 64-6 74 65 87 74 30" id="U"/><g id="n"><use transform="matrix(0.1086419753086419,0,0,0.1086419753086419,0,0)" xlink:href="#P"/><use transform="matrix(0.1086419753086419,0,0,0.1086419753086419,28.138271604938254,0)" xlink:href="#Q"/><use transform="matrix(0.1086419753086419,0,0,0.1086419753086419,41.06666666666664,0)" xlink:href="#R"/><use transform="matrix(0.1086419753086419,0,0,0.1086419753086419,64.85925925925922,0)" xlink:href="#S"/><use transform="matrix(0.1086419753086419,0,0,0.1086419753086419,99.62469135802462,0)" xlink:href="#T"/><use transform="matrix(0.1086419753086419,0,0,0.1086419753086419,110.48888888888881,0)" xlink:href="#U"/></g><path fill="#fff" d="M24-248c120-7 223 5 221 122C244-46 201 0 124 0H24v-248zM76-40c74 7 117-18 117-86 0-67-45-88-117-82v168" id="V"/><path fill="#fff" d="M185-48c-13 30-37 53-82 52C43 2 14-33 14-96s30-98 90-98c62 0 83 45 84 108H66c0 31 8 55 39 56 18 0 30-7 34-22zm-45-69c5-46-57-63-70-21-2 6-4 13-4 21h74" id="W"/><path fill="#fff" d="M137-138c1-29-70-34-71-4 15 46 118 7 119 86 1 83-164 76-172 9l43-7c4 19 20 25 44 25 33 8 57-30 24-41C81-84 22-81 20-136c-2-80 154-74 161-7" id="X"/><path fill="#fff" d="M195-6C206 82 75 100 31 46c-4-6-6-13-8-21l49-6c3 16 16 24 34 25 40 0 42-37 40-79-11 22-30 35-61 35-53 0-70-43-70-97 0-56 18-96 73-97 30 0 46 14 59 34l2-30h47zm-90-29c32 0 41-27 41-63 0-35-9-62-40-62-32 0-39 29-40 63 0 36 9 62 39 62" id="Y"/><path fill="#fff" d="M135-194c87-1 58 113 63 194h-50c-7-57 23-157-34-157-59 0-34 97-39 157H25l-1-190h47c2 12-1 28 3 38 12-26 28-41 61-42" id="Z"/><g id="o"><use transform="matrix(0.1086419753086419,0,0,0.1086419753086419,0,0)" xlink:href="#V"/><use transform="matrix(0.1086419753086419,0,0,0.1086419753086419,28.138271604938254,0)" xlink:href="#W"/><use transform="matrix(0.1086419753086419,0,0,0.1086419753086419,49.86666666666663,0)" xlink:href="#X"/><use transform="matrix(0.1086419753086419,0,0,0.1086419753086419,71.59506172839501,0)" xlink:href="#T"/><use transform="matrix(0.1086419753086419,0,0,0.1086419753086419,82.4592592592592,0)" xlink:href="#Y"/><use transform="matrix(0.1086419753086419,0,0,0.1086419753086419,106.25185185185177,0)" xlink:href="#Z"/></g></defs></g></svg>